<svg width="55" height="56" viewBox="0 0 55 56" fill="none" xmlns="http://www.w3.org/2000/svg">
<path fill-rule="evenodd" clip-rule="evenodd" d="M53.9494 55.8491L54.7469 3.01612L1.63379 0.989425L0.746911 54.9255L53.9494 55.8491ZM45.9285 51.2805L14.6169 49.3926L28.8836 42.8113L45.9285 51.2805ZM52.6358 8.04744L46.8518 29.0234L51.9573 51.5307L52.6358 8.04744ZM28.2022 8.25335L9.86079 26.983L4.44659 3.95233L28.2022 8.25335ZM5.23819 3.26459L49.9723 4.9483L29.2186 7.07599L5.23819 3.26459ZM3.73754 2.34491L3.74017 2.18667L3.63764 2.28376L3.73754 2.34491ZM3.36826 51.8977L12.407 30.2846L25.5361 39.5034L3.36826 51.8977ZM29.4447 29.2856L11.2008 28.5287L29.4855 28.3029L45.3119 28.9957L29.4447 29.2856ZM2.75479 46.6426L3.46378 8.6485L8.104 28.1056L2.75479 46.6426ZM52.3361 5.9188L31.3867 8.38546L45.9843 28.3112L52.3361 5.9188ZM29.0148 39.6477L44.7116 43.4679L45.9708 29.7731L29.0148 39.6477Z" fill="url(#paint0_linear_250_607)"/>
<defs>
<linearGradient id="paint0_linear_250_607" x1="60.5285" y1="6.85408" x2="1.86491" y2="-2.8247" gradientUnits="userSpaceOnUse">
<stop stop-color="#2DF3AE"/>
<stop offset="1" stop-color="#0CCBEC"/>
</linearGradient>
</defs>
</svg>
